solid OpenSCAD_Model
  facet normal 0 0 -1
    outer loop
      vertex -20 0 0
      vertex -19.563 4.15823 0
      vertex -19.563 -4.15823 0
    endloop
  endfacet
  facet normal 0 0 -1
    outer loop
      vertex -19.563 -4.15823 0
      vertex -19.563 4.15823 0
      vertex -18.2709 8.13473 0
    endloop
  endfacet
  facet normal 0 0 -1
    outer loop
      vertex -19.563 -4.15823 0
      vertex -18.2709 8.13473 0
      vertex -16.1803 11.7557 0
    endloop
  endfacet
  facet normal 0 0 -1
    outer loop
      vertex -19.563 -4.15823 0
      vertex -16.1803 11.7557 0
      vertex -13.3826 14.8629 0
    endloop
  endfacet
  facet normal 0 0 -1
    outer loop
      vertex -19.563 -4.15823 0
      vertex -13.3826 14.8629 0
      vertex -10 17.3205 0
    endloop
  endfacet
  facet normal 0 0 -1
    outer loop
      vertex -19.563 -4.15823 0
      vertex -10 17.3205 0
      vertex -6.18034 19.0211 0
    endloop
  endfacet
  facet normal 0 0 -1
    outer loop
      vertex -19.563 -4.15823 0
      vertex -6.18034 19.0211 0
      vertex -2.09057 19.8904 0
    endloop
  endfacet
  facet normal 0 0 -1
    outer loop
      vertex -19.563 -4.15823 0
      vertex -2.09057 19.8904 0
      vertex 0 19.8904 0
    endloop
  endfacet
  facet normal 0 0 -1
    outer loop
      vertex -19.563 -4.15823 0
      vertex 0 19.8904 0
      vertex 0 -19.8904 0
    endloop
  endfacet
  facet normal 0 0 -1
    outer loop
      vertex -19.563 -4.15823 0
      vertex 0 -19.8904 0
      vertex -2.09057 -19.8904 0
    endloop
  endfacet
  facet normal 0 0 -1
    outer loop
      vertex -19.563 -4.15823 0
      vertex -2.09057 -19.8904 0
      vertex -6.18034 -19.0211 0
    endloop
  endfacet
  facet normal 0 0 -1
    outer loop
      vertex -19.563 -4.15823 0
      vertex -6.18034 -19.0211 0
      vertex -10 -17.3205 0
    endloop
  endfacet
  facet normal 0 0 -1
    outer loop
      vertex -19.563 -4.15823 0
      vertex -10 -17.3205 0
      vertex -13.3826 -14.8629 0
    endloop
  endfacet
  facet normal 0 0 -1
    outer loop
      vertex -19.563 -4.15823 0
      vertex -13.3826 -14.8629 0
      vertex -16.1803 -11.7557 0
    endloop
  endfacet
  facet normal 0 0 -1
    outer loop
      vertex -19.563 -4.15823 0
      vertex -16.1803 -11.7557 0
      vertex -18.2709 -8.13473 0
    endloop
  endfacet
  facet normal -0.994522 0.104528 0
    outer loop
      vertex -20 0 0
      vertex -20 0 10
      vertex -19.563 4.15823 0
    endloop
  endfacet
  facet normal -0.994522 0.104528 0
    outer loop
      vertex -19.563 4.15823 0
      vertex -20 0 10
      vertex -19.563 4.15823 10
    endloop
  endfacet
  facet normal -0.994522 -0.104528 0
    outer loop
      vertex -19.8017 -1.88635 7.5
      vertex -20 0 10
      vertex -19.8017 -1.88635 2.5
    endloop
  endfacet
  facet normal -0.994522 -0.104528 0
    outer loop
      vertex -20 0 0
      vertex -19.563 -4.15823 0
      vertex -19.8017 -1.88635 2.5
    endloop
  endfacet
  facet normal -0.994522 -0.104528 0
    outer loop
      vertex -20 0 0
      vertex -19.8017 -1.88635 2.5
      vertex -20 0 10
    endloop
  endfacet
  facet normal -0.994522 -0.104528 0
    outer loop
      vertex -20 0 10
      vertex -19.8017 -1.88635 7.5
      vertex -19.563 -4.15823 7.5
    endloop
  endfacet
  facet normal -0.994522 -0.104528 0
    outer loop
      vertex -20 0 10
      vertex -19.563 -4.15823 7.5
      vertex -19.563 -4.15823 10
    endloop
  endfacet
  facet normal -0.994522 -0.104528 0
    outer loop
      vertex -19.8017 -1.88635 2.5
      vertex -19.563 -4.15823 0
      vertex -19.563 -4.15823 2.5
    endloop
  endfacet
  facet normal -0.951057 -0.309017 0
    outer loop
      vertex -19.563 -4.15823 0
      vertex -18.2709 -8.13473 0
      vertex -19.563 -4.15823 2.5
    endloop
  endfacet
  facet normal -0.951057 -0.309017 0
    outer loop
      vertex -18.7023 -6.80708 2.5
      vertex -18.2709 -8.13473 0
      vertex -18.2709 -8.13473 10
    endloop
  endfacet
  facet normal -0.951057 -0.309017 0
    outer loop
      vertex -19.563 -4.15823 7.5
      vertex -18.2709 -8.13473 10
      vertex -19.563 -4.15823 10
    endloop
  endfacet
  facet normal -0.951057 -0.309017 0
    outer loop
      vertex -18.7023 -6.80708 7.5
      vertex -18.2709 -8.13473 10
      vertex -19.563 -4.15823 7.5
    endloop
  endfacet
  facet normal -0.951057 -0.309017 0
    outer loop
      vertex -19.563 -4.15823 2.5
      vertex -18.2709 -8.13473 0
      vertex -18.7023 -6.80708 2.5
    endloop
  endfacet
  facet normal -0.951057 -0.309017 0
    outer loop
      vertex -18.7023 -6.80708 2.5
      vertex -18.2709 -8.13473 10
      vertex -18.7023 -6.80708 7.5
    endloop
  endfacet
  facet normal -0.866025 -0.5 0
    outer loop
      vertex -18.2709 -8.13473 0
      vertex -16.1803 -11.7557 0
      vertex -18.2709 -8.13473 10
    endloop
  endfacet
  facet normal -0.866025 -0.5 0
    outer loop
      vertex -18.2709 -8.13473 10
      vertex -16.1803 -11.7557 0
      vertex -16.1803 -11.7557 10
    endloop
  endfacet
  facet normal -0.743145 -0.669131 0
    outer loop
      vertex -16.1803 -11.7557 0
      vertex -13.3826 -14.8629 0
      vertex -16.1803 -11.7557 10
    endloop
  endfacet
  facet normal -0.743145 -0.669131 0
    outer loop
      vertex -13.9748 -14.2052 2.5
      vertex -13.3826 -14.8629 0
      vertex -13.3826 -14.8629 2.5
    endloop
  endfacet
  facet normal -0.743145 -0.669131 0
    outer loop
      vertex -16.1803 -11.7557 10
      vertex -13.3826 -14.8629 0
      vertex -13.9748 -14.2052 2.5
    endloop
  endfacet
  facet normal -0.743145 -0.669131 0
    outer loop
      vertex -16.1803 -11.7557 10
      vertex -13.9748 -14.2052 7.5
      vertex -13.3826 -14.8629 7.5
    endloop
  endfacet
  facet normal -0.743145 -0.669131 0
    outer loop
      vertex -16.1803 -11.7557 10
      vertex -13.3826 -14.8629 7.5
      vertex -13.3826 -14.8629 10
    endloop
  endfacet
  facet normal -0.743145 -0.669131 0
    outer loop
      vertex -13.9748 -14.2052 7.5
      vertex -16.1803 -11.7557 10
      vertex -13.9748 -14.2052 2.5
    endloop
  endfacet
  facet normal -0.587785 -0.809017 0
    outer loop
      vertex -13.3826 -14.8629 2.5
      vertex -13.3826 -14.8629 0
      vertex -10 -17.3205 0
    endloop
  endfacet
  facet normal -0.587785 -0.809017 0
    outer loop
      vertex -10 -17.3205 2.5
      vertex -13.3826 -14.8629 2.5
      vertex -10 -17.3205 0
    endloop
  endfacet
  facet normal -0.406737 -0.913545 0
    outer loop
      vertex -10 -17.3205 2.5
      vertex -10 -17.3205 0
      vertex -6.18034 -19.0211 0
    endloop
  endfacet
  facet normal -0.406737 -0.913545 0
    outer loop
      vertex -10 -17.3205 10
      vertex -10 -17.3205 7.5
      vertex -6.18034 -19.0211 10
    endloop
  endfacet
  facet normal -0.406737 -0.913545 0
    outer loop
      vertex -6.18034 -19.0211 10
      vertex -10 -17.3205 2.5
      vertex -6.18034 -19.0211 0
    endloop
  endfacet
  facet normal -0.406737 -0.913545 0
    outer loop
      vertex -10 -17.3205 7.5
      vertex -10 -17.3205 2.5
      vertex -6.18034 -19.0211 10
    endloop
  endfacet
  facet normal -0.207912 -0.978148 0
    outer loop
      vertex -6.18034 -19.0211 10
      vertex -6.18034 -19.0211 0
      vertex -2.09057 -19.8904 0
    endloop
  endfacet
  facet normal -0.207912 -0.978148 0
    outer loop
      vertex -2.09057 -19.8904 10
      vertex -6.18034 -19.0211 10
      vertex -2.09057 -19.8904 0
    endloop
  endfacet
  facet normal 0 -1 0
    outer loop
      vertex -2.09057 -19.8904 10
      vertex -2.09057 -19.8904 0
      vertex 0 -19.8904 0
    endloop
  endfacet
  facet normal 0 -1 0
    outer loop
      vertex 0 -19.8904 10
      vertex -2.09057 -19.8904 10
      vertex 0 -19.8904 0
    endloop
  endfacet
  facet normal 1 0 0
    outer loop
      vertex 0 19.8904 0
      vertex 0 19.8904 10
      vertex 0 -19.8904 10
    endloop
  endfacet
  facet normal 1 0 0
    outer loop
      vertex 0 -19.8904 0
      vertex 0 19.8904 0
      vertex 0 -19.8904 10
    endloop
  endfacet
  facet normal 0 1 0
    outer loop
      vertex -2.09057 19.8904 0
      vertex -2.09057 19.8904 10
      vertex 0 19.8904 0
    endloop
  endfacet
  facet normal 0 1 0
    outer loop
      vertex 0 19.8904 0
      vertex -2.09057 19.8904 10
      vertex 0 19.8904 10
    endloop
  endfacet
  facet normal -0.207912 0.978148 0
    outer loop
      vertex -6.18034 19.0211 0
      vertex -6.18034 19.0211 2.5
      vertex -2.09057 19.8904 0
    endloop
  endfacet
  facet normal -0.207912 0.978148 0
    outer loop
      vertex -2.09057 19.8904 0
      vertex -6.18034 19.0211 2.5
      vertex -5.3146 19.2051 2.5
    endloop
  endfacet
  facet normal -0.207912 0.978148 0
    outer loop
      vertex -2.09057 19.8904 0
      vertex -5.3146 19.2051 2.5
      vertex -5.3146 19.2051 7.5
    endloop
  endfacet
  facet normal -0.207912 0.978148 0
    outer loop
      vertex -5.3146 19.2051 7.5
      vertex -6.18034 19.0211 7.5
      vertex -6.18034 19.0211 10
    endloop
  endfacet
  facet normal -0.207912 0.978148 0
    outer loop
      vertex -5.3146 19.2051 7.5
      vertex -6.18034 19.0211 10
      vertex -2.09057 19.8904 0
    endloop
  endfacet
  facet normal -0.207912 0.978148 0
    outer loop
      vertex -2.09057 19.8904 0
      vertex -6.18034 19.0211 10
      vertex -2.09057 19.8904 10
    endloop
  endfacet
  facet normal -0.406737 0.913545 0
    outer loop
      vertex -6.18034 19.0211 2.5
      vertex -6.18034 19.0211 0
      vertex -10 17.3205 2.5
    endloop
  endfacet
  facet normal -0.406737 0.913545 0
    outer loop
      vertex -6.18034 19.0211 7.5
      vertex -10 17.3205 10
      vertex -6.18034 19.0211 10
    endloop
  endfacet
  facet normal -0.406737 0.913545 0
    outer loop
      vertex -10 17.3205 0
      vertex -10 17.3205 10
      vertex -10 17.3205 7.5
    endloop
  endfacet
  facet normal -0.406737 0.913545 0
    outer loop
      vertex -10 17.3205 0
      vertex -10 17.3205 7.5
      vertex -10 17.3205 2.5
    endloop
  endfacet
  facet normal -0.406737 0.913545 0
    outer loop
      vertex -10 17.3205 0
      vertex -10 17.3205 2.5
      vertex -6.18034 19.0211 0
    endloop
  endfacet
  facet normal -0.406737 0.913545 0
    outer loop
      vertex -10 17.3205 7.5
      vertex -10 17.3205 10
      vertex -6.18034 19.0211 7.5
    endloop
  endfacet
  facet normal -0.587785 0.809017 0
    outer loop
      vertex -13.3826 14.8629 0
      vertex -13.3826 14.8629 10
      vertex -10 17.3205 0
    endloop
  endfacet
  facet normal -0.587785 0.809017 0
    outer loop
      vertex -10 17.3205 0
      vertex -13.3826 14.8629 10
      vertex -10 17.3205 10
    endloop
  endfacet
  facet normal -0.743145 0.669131 0
    outer loop
      vertex -16.1803 11.7557 0
      vertex -16.1803 11.7557 10
      vertex -13.3826 14.8629 0
    endloop
  endfacet
  facet normal -0.743145 0.669131 0
    outer loop
      vertex -13.3826 14.8629 0
      vertex -16.1803 11.7557 10
      vertex -13.3826 14.8629 10
    endloop
  endfacet
  facet normal -0.866025 0.5 0
    outer loop
      vertex -18.2709 8.13473 0
      vertex -18.2709 8.13473 2.5
      vertex -16.1803 11.7557 0
    endloop
  endfacet
  facet normal -0.866025 0.5 0
    outer loop
      vertex -16.1803 11.7557 0
      vertex -18.2709 8.13473 2.5
      vertex -16.4407 11.3048 2.5
    endloop
  endfacet
  facet normal -0.866025 0.5 0
    outer loop
      vertex -16.1803 11.7557 0
      vertex -16.4407 11.3048 2.5
      vertex -16.4407 11.3048 7.5
    endloop
  endfacet
  facet normal -0.866025 0.5 0
    outer loop
      vertex -16.4407 11.3048 7.5
      vertex -18.2709 8.13473 7.5
      vertex -18.2709 8.13473 10
    endloop
  endfacet
  facet normal -0.866025 0.5 0
    outer loop
      vertex -16.4407 11.3048 7.5
      vertex -18.2709 8.13473 10
      vertex -16.1803 11.7557 10
    endloop
  endfacet
  facet normal -0.866025 0.5 0
    outer loop
      vertex -16.4407 11.3048 7.5
      vertex -16.1803 11.7557 10
      vertex -16.1803 11.7557 0
    endloop
  endfacet
  facet normal -0.951057 0.309017 0
    outer loop
      vertex -18.2709 8.13473 2.5
      vertex -18.2709 8.13473 0
      vertex -18.7023 6.80708 2.5
    endloop
  endfacet
  facet normal -0.951057 0.309017 0
    outer loop
      vertex -18.2709 8.13473 7.5
      vertex -19.563 4.15823 10
      vertex -18.2709 8.13473 10
    endloop
  endfacet
  facet normal -0.951057 0.309017 0
    outer loop
      vertex -18.7023 6.80708 7.5
      vertex -19.563 4.15823 10
      vertex -18.2709 8.13473 7.5
    endloop
  endfacet
  facet normal -0.951057 0.309017 0
    outer loop
      vertex -19.563 4.15823 0
      vertex -19.563 4.15823 10
      vertex -18.7023 6.80708 2.5
    endloop
  endfacet
  facet normal -0.951057 0.309017 0
    outer loop
      vertex -19.563 4.15823 0
      vertex -18.7023 6.80708 2.5
      vertex -18.2709 8.13473 0
    endloop
  endfacet
  facet normal -0.951057 0.309017 0
    outer loop
      vertex -18.7023 6.80708 2.5
      vertex -19.563 4.15823 10
      vertex -18.7023 6.80708 7.5
    endloop
  endfacet
  facet normal 0 0 1
    outer loop
      vertex -19.563 4.15823 10
      vertex -20 0 10
      vertex -19.563 -4.15823 10
    endloop
  endfacet
  facet normal 0 0 1
    outer loop
      vertex -16.1803 -11.7557 10
      vertex -19.563 4.15823 10
      vertex -18.2709 -8.13473 10
    endloop
  endfacet
  facet normal 0 0 1
    outer loop
      vertex -18.2709 -8.13473 10
      vertex -19.563 4.15823 10
      vertex -19.563 -4.15823 10
    endloop
  endfacet
  facet normal 0 0 1
    outer loop
      vertex -13.3826 -14.8629 10
      vertex -19.563 4.15823 10
      vertex -16.1803 -11.7557 10
    endloop
  endfacet
  facet normal 0 0 1
    outer loop
      vertex -10 -17.3205 10
      vertex -19.563 4.15823 10
      vertex -13.3826 -14.8629 10
    endloop
  endfacet
  facet normal 0 0 1
    outer loop
      vertex -6.18034 -19.0211 10
      vertex -19.563 4.15823 10
      vertex -10 -17.3205 10
    endloop
  endfacet
  facet normal 0 0 1
    outer loop
      vertex -2.09057 -19.8904 10
      vertex -19.563 4.15823 10
      vertex -6.18034 -19.0211 10
    endloop
  endfacet
  facet normal 0 0 1
    outer loop
      vertex 0 -19.8904 10
      vertex -19.563 4.15823 10
      vertex -2.09057 -19.8904 10
    endloop
  endfacet
  facet normal 0 0 1
    outer loop
      vertex 0 19.8904 10
      vertex -19.563 4.15823 10
      vertex 0 -19.8904 10
    endloop
  endfacet
  facet normal 0 0 1
    outer loop
      vertex -2.09057 19.8904 10
      vertex -19.563 4.15823 10
      vertex 0 19.8904 10
    endloop
  endfacet
  facet normal 0 0 1
    outer loop
      vertex -6.18034 19.0211 10
      vertex -19.563 4.15823 10
      vertex -2.09057 19.8904 10
    endloop
  endfacet
  facet normal 0 0 1
    outer loop
      vertex -10 17.3205 10
      vertex -19.563 4.15823 10
      vertex -6.18034 19.0211 10
    endloop
  endfacet
  facet normal 0 0 1
    outer loop
      vertex -13.3826 14.8629 10
      vertex -19.563 4.15823 10
      vertex -10 17.3205 10
    endloop
  endfacet
  facet normal 0 0 1
    outer loop
      vertex -16.1803 11.7557 10
      vertex -19.563 4.15823 10
      vertex -13.3826 14.8629 10
    endloop
  endfacet
  facet normal 0 0 1
    outer loop
      vertex -18.2709 8.13473 10
      vertex -19.563 4.15823 10
      vertex -16.1803 11.7557 10
    endloop
  endfacet
  facet normal 0 0 -1
    outer loop
      vertex -14.0954 -5.1303 7.5
      vertex -18.7023 -6.80708 7.5
      vertex -15.8055 -0.431839 7.5
    endloop
  endfacet
  facet normal 0 0 -1
    outer loop
      vertex -15.8055 -0.431839 7.5
      vertex -18.7023 -6.80708 7.5
      vertex -19.563 -4.15823 7.5
    endloop
  endfacet
  facet normal 0 0 -1
    outer loop
      vertex -15.8055 -0.431839 7.5
      vertex -19.563 -4.15823 7.5
      vertex -19.8017 -1.88635 7.5
    endloop
  endfacet
  facet normal 0.34202 -0.939693 0
    outer loop
      vertex -15.8055 -0.431839 2.5
      vertex -15.8055 -0.431839 7.5
      vertex -19.8017 -1.88635 7.5
    endloop
  endfacet
  facet normal 0.34202 -0.939693 0
    outer loop
      vertex -19.8017 -1.88635 2.5
      vertex -15.8055 -0.431839 2.5
      vertex -19.8017 -1.88635 7.5
    endloop
  endfacet
  facet normal 0 0 1
    outer loop
      vertex -19.563 -4.15823 2.5
      vertex -18.7023 -6.80708 2.5
      vertex -14.0954 -5.1303 2.5
    endloop
  endfacet
  facet normal 0 0 1
    outer loop
      vertex -19.8017 -1.88635 2.5
      vertex -19.563 -4.15823 2.5
      vertex -15.8055 -0.431839 2.5
    endloop
  endfacet
  facet normal 0 0 1
    outer loop
      vertex -15.8055 -0.431839 2.5
      vertex -19.563 -4.15823 2.5
      vertex -14.0954 -5.1303 2.5
    endloop
  endfacet
  facet normal -0.34202 0.939693 0
    outer loop
      vertex -14.0954 -5.1303 7.5
      vertex -14.0954 -5.1303 2.5
      vertex -18.7023 -6.80708 7.5
    endloop
  endfacet
  facet normal -0.34202 0.939693 0
    outer loop
      vertex -18.7023 -6.80708 7.5
      vertex -14.0954 -5.1303 2.5
      vertex -18.7023 -6.80708 2.5
    endloop
  endfacet
  facet normal -0.587785 -0.809017 0
    outer loop
      vertex -13.3826 -14.8629 10
      vertex -13.3826 -14.8629 7.5
      vertex -10 -17.3205 7.5
    endloop
  endfacet
  facet normal -0.587785 -0.809017 0
    outer loop
      vertex -10 -17.3205 10
      vertex -13.3826 -14.8629 10
      vertex -10 -17.3205 7.5
    endloop
  endfacet
  facet normal 0 0 -1
    outer loop
      vertex -7.5 -12.9904 7.5
      vertex -10 -17.3205 7.5
      vertex -11.8301 -10.4904 7.5
    endloop
  endfacet
  facet normal 0 0 -1
    outer loop
      vertex -11.8301 -10.4904 7.5
      vertex -10 -17.3205 7.5
      vertex -13.3826 -14.8629 7.5
    endloop
  endfacet
  facet normal 0 0 -1
    outer loop
      vertex -11.8301 -10.4904 7.5
      vertex -13.3826 -14.8629 7.5
      vertex -13.9748 -14.2052 7.5
    endloop
  endfacet
  facet normal 0.866025 -0.5 0
    outer loop
      vertex -11.8301 -10.4904 2.5
      vertex -11.8301 -10.4904 7.5
      vertex -13.9748 -14.2052 7.5
    endloop
  endfacet
  facet normal 0.866025 -0.5 0
    outer loop
      vertex -13.9748 -14.2052 2.5
      vertex -11.8301 -10.4904 2.5
      vertex -13.9748 -14.2052 7.5
    endloop
  endfacet
  facet normal 0 0 1
    outer loop
      vertex -11.8301 -10.4904 2.5
      vertex -13.3826 -14.8629 2.5
      vertex -7.5 -12.9904 2.5
    endloop
  endfacet
  facet normal 0 0 1
    outer loop
      vertex -7.5 -12.9904 2.5
      vertex -13.3826 -14.8629 2.5
      vertex -10 -17.3205 2.5
    endloop
  endfacet
  facet normal 0 0 1
    outer loop
      vertex -13.9748 -14.2052 2.5
      vertex -13.3826 -14.8629 2.5
      vertex -11.8301 -10.4904 2.5
    endloop
  endfacet
  facet normal -0.866025 0.5 0
    outer loop
      vertex -7.5 -12.9904 7.5
      vertex -7.5 -12.9904 2.5
      vertex -10 -17.3205 7.5
    endloop
  endfacet
  facet normal -0.866025 0.5 0
    outer loop
      vertex -10 -17.3205 7.5
      vertex -7.5 -12.9904 2.5
      vertex -10 -17.3205 2.5
    endloop
  endfacet
  facet normal 0 0 -1
    outer loop
      vertex -5.3146 19.2051 7.5
      vertex -3.16987 15.4904 7.5
      vertex -6.18034 19.0211 7.5
    endloop
  endfacet
  facet normal 0 0 -1
    outer loop
      vertex -6.18034 19.0211 7.5
      vertex -3.16987 15.4904 7.5
      vertex -7.5 12.9904 7.5
    endloop
  endfacet
  facet normal 0 0 -1
    outer loop
      vertex -6.18034 19.0211 7.5
      vertex -7.5 12.9904 7.5
      vertex -10 17.3205 7.5
    endloop
  endfacet
  facet normal -0.866025 -0.5 0
    outer loop
      vertex -3.16987 15.4904 7.5
      vertex -5.3146 19.2051 7.5
      vertex -3.16987 15.4904 2.5
    endloop
  endfacet
  facet normal -0.866025 -0.5 0
    outer loop
      vertex -3.16987 15.4904 2.5
      vertex -5.3146 19.2051 7.5
      vertex -5.3146 19.2051 2.5
    endloop
  endfacet
  facet normal 0 0 1
    outer loop
      vertex -7.5 12.9904 2.5
      vertex -3.16987 15.4904 2.5
      vertex -5.3146 19.2051 2.5
    endloop
  endfacet
  facet normal 0 0 1
    outer loop
      vertex -10 17.3205 2.5
      vertex -7.5 12.9904 2.5
      vertex -6.18034 19.0211 2.5
    endloop
  endfacet
  facet normal 0 0 1
    outer loop
      vertex -6.18034 19.0211 2.5
      vertex -7.5 12.9904 2.5
      vertex -5.3146 19.2051 2.5
    endloop
  endfacet
  facet normal 0.866025 0.5 0
    outer loop
      vertex -10 17.3205 7.5
      vertex -7.5 12.9904 7.5
      vertex -7.5 12.9904 2.5
    endloop
  endfacet
  facet normal 0.866025 0.5 0
    outer loop
      vertex -10 17.3205 2.5
      vertex -10 17.3205 7.5
      vertex -7.5 12.9904 2.5
    endloop
  endfacet
  facet normal 0 0 -1
    outer loop
      vertex -16.4407 11.3048 7.5
      vertex -12.3853 9.82877 7.5
      vertex -18.2709 8.13473 7.5
    endloop
  endfacet
  facet normal 0 0 -1
    outer loop
      vertex -18.2709 8.13473 7.5
      vertex -12.3853 9.82877 7.5
      vertex -14.0954 5.1303 7.5
    endloop
  endfacet
  facet normal 0 0 -1
    outer loop
      vertex -18.2709 8.13473 7.5
      vertex -14.0954 5.1303 7.5
      vertex -18.7023 6.80708 7.5
    endloop
  endfacet
  facet normal -0.34202 -0.939693 0
    outer loop
      vertex -12.3853 9.82877 2.5
      vertex -12.3853 9.82877 7.5
      vertex -16.4407 11.3048 7.5
    endloop
  endfacet
  facet normal -0.34202 -0.939693 0
    outer loop
      vertex -16.4407 11.3048 2.5
      vertex -12.3853 9.82877 2.5
      vertex -16.4407 11.3048 7.5
    endloop
  endfacet
  facet normal 0 0 1
    outer loop
      vertex -14.0954 5.1303 2.5
      vertex -12.3853 9.82877 2.5
      vertex -16.4407 11.3048 2.5
    endloop
  endfacet
  facet normal 0 0 1
    outer loop
      vertex -18.7023 6.80708 2.5
      vertex -14.0954 5.1303 2.5
      vertex -18.2709 8.13473 2.5
    endloop
  endfacet
  facet normal 0 0 1
    outer loop
      vertex -18.2709 8.13473 2.5
      vertex -14.0954 5.1303 2.5
      vertex -16.4407 11.3048 2.5
    endloop
  endfacet
  facet normal 0.34202 0.939693 0
    outer loop
      vertex -14.0954 5.1303 7.5
      vertex -14.0954 5.1303 2.5
      vertex -18.7023 6.80708 7.5
    endloop
  endfacet
  facet normal 0.34202 0.939693 0
    outer loop
      vertex -18.7023 6.80708 7.5
      vertex -14.0954 5.1303 2.5
      vertex -18.7023 6.80708 2.5
    endloop
  endfacet
  facet normal -0.939693 -0.34202 0
    outer loop
      vertex -14.0954 -5.1303 7.5
      vertex -15.8055 -0.431839 7.5
      vertex -14.0954 -5.1303 2.5
    endloop
  endfacet
  facet normal -0.939693 -0.34202 0
    outer loop
      vertex -14.0954 -5.1303 2.5
      vertex -15.8055 -0.431839 7.5
      vertex -15.8055 -0.431839 2.5
    endloop
  endfacet
  facet normal -0.5 -0.866025 0
    outer loop
      vertex -7.5 -12.9904 2.5
      vertex -7.5 -12.9904 7.5
      vertex -11.8301 -10.4904 7.5
    endloop
  endfacet
  facet normal -0.5 -0.866025 0
    outer loop
      vertex -11.8301 -10.4904 2.5
      vertex -7.5 -12.9904 2.5
      vertex -11.8301 -10.4904 7.5
    endloop
  endfacet
  facet normal -0.5 0.866025 0
    outer loop
      vertex -3.16987 15.4904 7.5
      vertex -3.16987 15.4904 2.5
      vertex -7.5 12.9904 7.5
    endloop
  endfacet
  facet normal -0.5 0.866025 0
    outer loop
      vertex -7.5 12.9904 7.5
      vertex -3.16987 15.4904 2.5
      vertex -7.5 12.9904 2.5
    endloop
  endfacet
  facet normal -0.939693 0.34202 0
    outer loop
      vertex -12.3853 9.82877 7.5
      vertex -12.3853 9.82877 2.5
      vertex -14.0954 5.1303 7.5
    endloop
  endfacet
  facet normal -0.939693 0.34202 0
    outer loop
      vertex -14.0954 5.1303 7.5
      vertex -12.3853 9.82877 2.5
      vertex -14.0954 5.1303 2.5
    endloop
  endfacet
endsolid OpenSCAD_Model
