solid OpenSCAD_Model
  facet normal 0 0 -1
    outer loop
      vertex -70 0 0
      vertex -68.4703 14.5538 0
      vertex -68.4703 -14.5538 0
    endloop
  endfacet
  facet normal 0 0 -1
    outer loop
      vertex -68.4703 -14.5538 0
      vertex -68.4703 14.5538 0
      vertex -63.9482 28.4716 0
    endloop
  endfacet
  facet normal 0 0 -1
    outer loop
      vertex -68.4703 -14.5538 0
      vertex -63.9482 28.4716 0
      vertex -56.6312 41.145 0
    endloop
  endfacet
  facet normal 0 0 -1
    outer loop
      vertex -68.4703 -14.5538 0
      vertex -56.6312 41.145 0
      vertex -46.8391 52.0201 0
    endloop
  endfacet
  facet normal 0 0 -1
    outer loop
      vertex -68.4703 -14.5538 0
      vertex -46.8391 52.0201 0
      vertex -35 60.6218 0
    endloop
  endfacet
  facet normal 0 0 -1
    outer loop
      vertex -68.4703 -14.5538 0
      vertex -35 60.6218 0
      vertex -21.6312 66.574 0
    endloop
  endfacet
  facet normal 0 0 -1
    outer loop
      vertex -68.4703 -14.5538 0
      vertex -21.6312 66.574 0
      vertex -7.31699 69.6165 0
    endloop
  endfacet
  facet normal 0 0 -1
    outer loop
      vertex -68.4703 -14.5538 0
      vertex -7.31699 69.6165 0
      vertex 0 69.6165 0
    endloop
  endfacet
  facet normal 0 0 -1
    outer loop
      vertex -68.4703 -14.5538 0
      vertex 0 69.6165 0
      vertex 0 -69.6165 0
    endloop
  endfacet
  facet normal 0 0 -1
    outer loop
      vertex -68.4703 -14.5538 0
      vertex 0 -69.6165 0
      vertex -7.31699 -69.6165 0
    endloop
  endfacet
  facet normal 0 0 -1
    outer loop
      vertex -68.4703 -14.5538 0
      vertex -7.31699 -69.6165 0
      vertex -21.6312 -66.574 0
    endloop
  endfacet
  facet normal 0 0 -1
    outer loop
      vertex -68.4703 -14.5538 0
      vertex -21.6312 -66.574 0
      vertex -35 -60.6218 0
    endloop
  endfacet
  facet normal 0 0 -1
    outer loop
      vertex -68.4703 -14.5538 0
      vertex -35 -60.6218 0
      vertex -46.8391 -52.0201 0
    endloop
  endfacet
  facet normal 0 0 -1
    outer loop
      vertex -68.4703 -14.5538 0
      vertex -46.8391 -52.0201 0
      vertex -56.6312 -41.145 0
    endloop
  endfacet
  facet normal 0 0 -1
    outer loop
      vertex -68.4703 -14.5538 0
      vertex -56.6312 -41.145 0
      vertex -63.9482 -28.4716 0
    endloop
  endfacet
  facet normal -0.994522 0.104528 0
    outer loop
      vertex -68.4703 14.5538 3
      vertex -68.4703 14.5538 0
      vertex -68.6866 12.4958 3
    endloop
  endfacet
  facet normal -0.994522 0.104528 0
    outer loop
      vertex -68.4703 14.5538 23.5
      vertex -70 0 30
      vertex -68.4703 14.5538 30
    endloop
  endfacet
  facet normal -0.994522 0.104528 0
    outer loop
      vertex -68.6866 12.4958 23.5
      vertex -70 0 30
      vertex -68.4703 14.5538 23.5
    endloop
  endfacet
  facet normal -0.994522 0.104528 0
    outer loop
      vertex -70 0 0
      vertex -70 0 30
      vertex -68.6866 12.4958 3
    endloop
  endfacet
  facet normal -0.994522 0.104528 0
    outer loop
      vertex -70 0 0
      vertex -68.6866 12.4958 3
      vertex -68.4703 14.5538 0
    endloop
  endfacet
  facet normal -0.994522 0.104528 0
    outer loop
      vertex -68.6866 12.4958 3
      vertex -70 0 30
      vertex -68.6866 12.4958 23.5
    endloop
  endfacet
  facet normal -0.994522 -0.104528 0
    outer loop
      vertex -68.6866 -12.4958 23.5
      vertex -70 0 30
      vertex -68.6866 -12.4958 3
    endloop
  endfacet
  facet normal -0.994522 -0.104528 0
    outer loop
      vertex -70 0 0
      vertex -68.4703 -14.5538 0
      vertex -68.6866 -12.4958 3
    endloop
  endfacet
  facet normal -0.994522 -0.104528 0
    outer loop
      vertex -70 0 0
      vertex -68.6866 -12.4958 3
      vertex -70 0 30
    endloop
  endfacet
  facet normal -0.994522 -0.104528 0
    outer loop
      vertex -70 0 30
      vertex -68.6866 -12.4958 23.5
      vertex -68.4703 -14.5538 23.5
    endloop
  endfacet
  facet normal -0.994522 -0.104528 0
    outer loop
      vertex -70 0 30
      vertex -68.4703 -14.5538 23.5
      vertex -68.4703 -14.5538 30
    endloop
  endfacet
  facet normal -0.994522 -0.104528 0
    outer loop
      vertex -68.6866 -12.4958 3
      vertex -68.4703 -14.5538 0
      vertex -68.4703 -14.5538 3
    endloop
  endfacet
  facet normal -0.951057 -0.309017 0
    outer loop
      vertex -68.4703 -14.5538 0
      vertex -63.9482 -28.4716 0
      vertex -68.4703 -14.5538 3
    endloop
  endfacet
  facet normal -0.951057 -0.309017 0
    outer loop
      vertex -68.4703 -14.5538 3
      vertex -63.9482 -28.4716 0
      vertex -63.9482 -28.4716 3
    endloop
  endfacet
  facet normal -0.866025 -0.5 0
    outer loop
      vertex -63.9482 -28.4716 0
      vertex -56.6312 -41.145 0
      vertex -63.9482 -28.4716 3
    endloop
  endfacet
  facet normal -0.866025 -0.5 0
    outer loop
      vertex -60.4617 -34.5103 3
      vertex -56.6312 -41.145 0
      vertex -56.6312 -41.145 30
    endloop
  endfacet
  facet normal -0.866025 -0.5 0
    outer loop
      vertex -63.9482 -28.4716 23.5
      vertex -56.6312 -41.145 30
      vertex -63.9482 -28.4716 30
    endloop
  endfacet
  facet normal -0.866025 -0.5 0
    outer loop
      vertex -60.4617 -34.5103 23.5
      vertex -56.6312 -41.145 30
      vertex -63.9482 -28.4716 23.5
    endloop
  endfacet
  facet normal -0.866025 -0.5 0
    outer loop
      vertex -63.9482 -28.4716 3
      vertex -56.6312 -41.145 0
      vertex -60.4617 -34.5103 3
    endloop
  endfacet
  facet normal -0.866025 -0.5 0
    outer loop
      vertex -60.4617 -34.5103 3
      vertex -56.6312 -41.145 30
      vertex -60.4617 -34.5103 23.5
    endloop
  endfacet
  facet normal -0.743145 -0.669131 0
    outer loop
      vertex -56.6312 -41.145 0
      vertex -46.8391 -52.0201 0
      vertex -56.6312 -41.145 30
    endloop
  endfacet
  facet normal -0.743145 -0.669131 0
    outer loop
      vertex -56.6312 -41.145 30
      vertex -46.8391 -52.0201 0
      vertex -46.8391 -52.0201 30
    endloop
  endfacet
  facet normal -0.587785 -0.809017 0
    outer loop
      vertex -44.5583 -53.6773 3
      vertex -46.8391 -52.0201 0
      vertex -35 -60.6218 0
    endloop
  endfacet
  facet normal -0.587785 -0.809017 0
    outer loop
      vertex -46.8391 -52.0201 30
      vertex -46.8391 -52.0201 0
      vertex -44.5583 -53.6773 3
    endloop
  endfacet
  facet normal -0.587785 -0.809017 0
    outer loop
      vertex -44.5583 -53.6773 23.5
      vertex -35 -60.6218 23.5
      vertex -46.8391 -52.0201 30
    endloop
  endfacet
  facet normal -0.587785 -0.809017 0
    outer loop
      vertex -46.8391 -52.0201 30
      vertex -44.5583 -53.6773 3
      vertex -44.5583 -53.6773 23.5
    endloop
  endfacet
  facet normal -0.587785 -0.809017 0
    outer loop
      vertex -35 -60.6218 30
      vertex -46.8391 -52.0201 30
      vertex -35 -60.6218 23.5
    endloop
  endfacet
  facet normal -0.587785 -0.809017 0
    outer loop
      vertex -35 -60.6218 3
      vertex -44.5583 -53.6773 3
      vertex -35 -60.6218 0
    endloop
  endfacet
  facet normal -0.406737 -0.913545 0
    outer loop
      vertex -35 -60.6218 3
      vertex -35 -60.6218 0
      vertex -21.6312 -66.574 0
    endloop
  endfacet
  facet normal -0.406737 -0.913545 0
    outer loop
      vertex -24.2067 -65.4273 3
      vertex -35 -60.6218 3
      vertex -21.6312 -66.574 0
    endloop
  endfacet
  facet normal -0.406737 -0.913545 0
    outer loop
      vertex -35 -60.6218 30
      vertex -35 -60.6218 23.5
      vertex -21.6312 -66.574 30
    endloop
  endfacet
  facet normal -0.406737 -0.913545 0
    outer loop
      vertex -21.6312 -66.574 30
      vertex -24.2067 -65.4273 23.5
      vertex -21.6312 -66.574 0
    endloop
  endfacet
  facet normal -0.406737 -0.913545 0
    outer loop
      vertex -24.2067 -65.4273 23.5
      vertex -24.2067 -65.4273 3
      vertex -21.6312 -66.574 0
    endloop
  endfacet
  facet normal -0.406737 -0.913545 0
    outer loop
      vertex -35 -60.6218 23.5
      vertex -24.2067 -65.4273 23.5
      vertex -21.6312 -66.574 30
    endloop
  endfacet
  facet normal -0.207912 -0.978148 0
    outer loop
      vertex -21.6312 -66.574 30
      vertex -21.6312 -66.574 0
      vertex -7.31699 -69.6165 0
    endloop
  endfacet
  facet normal -0.207912 -0.978148 0
    outer loop
      vertex -7.31699 -69.6165 30
      vertex -21.6312 -66.574 30
      vertex -7.31699 -69.6165 0
    endloop
  endfacet
  facet normal 0 -1 0
    outer loop
      vertex -7.31699 -69.6165 30
      vertex -7.31699 -69.6165 0
      vertex 0 -69.6165 0
    endloop
  endfacet
  facet normal 0 -1 0
    outer loop
      vertex 0 -69.6165 30
      vertex -7.31699 -69.6165 30
      vertex 0 -69.6165 0
    endloop
  endfacet
  facet normal 1 0 0
    outer loop
      vertex 0 -23.5 23.5
      vertex 0 69.6165 30
      vertex 0 -69.6165 30
    endloop
  endfacet
  facet normal 1 0 0
    outer loop
      vertex 0 23.5 23.5
      vertex 0 23.5 3
      vertex 0 69.6165 0
    endloop
  endfacet
  facet normal 1 0 0
    outer loop
      vertex 0 23.5 23.5
      vertex 0 69.6165 30
      vertex 0 -23.5 23.5
    endloop
  endfacet
  facet normal 1 0 0
    outer loop
      vertex 0 69.6165 0
      vertex 0 69.6165 30
      vertex 0 23.5 23.5
    endloop
  endfacet
  facet normal 1 0 0
    outer loop
      vertex 0 -69.6165 0
      vertex 0 69.6165 0
      vertex 0 23.5 3
    endloop
  endfacet
  facet normal 1 0 0
    outer loop
      vertex 0 -69.6165 0
      vertex 0 -23.5 3
      vertex 0 -69.6165 30
    endloop
  endfacet
  facet normal 1 0 0
    outer loop
      vertex 0 -69.6165 0
      vertex 0 23.5 3
      vertex 0 -23.5 3
    endloop
  endfacet
  facet normal 1 0 0
    outer loop
      vertex 0 -23.5 3
      vertex 0 -23.5 23.5
      vertex 0 -69.6165 30
    endloop
  endfacet
  facet normal 0 1 0
    outer loop
      vertex -7.31699 69.6165 0
      vertex -7.31699 69.6165 30
      vertex 0 69.6165 0
    endloop
  endfacet
  facet normal 0 1 0
    outer loop
      vertex 0 69.6165 0
      vertex -7.31699 69.6165 30
      vertex 0 69.6165 30
    endloop
  endfacet
  facet normal -0.207912 0.978148 0
    outer loop
      vertex -21.6312 66.574 0
      vertex -21.6312 66.574 30
      vertex -7.31699 69.6165 0
    endloop
  endfacet
  facet normal -0.207912 0.978148 0
    outer loop
      vertex -7.31699 69.6165 0
      vertex -21.6312 66.574 30
      vertex -7.31699 69.6165 30
    endloop
  endfacet
  facet normal -0.406737 0.913545 0
    outer loop
      vertex -35 60.6218 0
      vertex -35 60.6218 3
      vertex -21.6312 66.574 0
    endloop
  endfacet
  facet normal -0.406737 0.913545 0
    outer loop
      vertex -21.6312 66.574 0
      vertex -35 60.6218 3
      vertex -24.2067 65.4273 3
    endloop
  endfacet
  facet normal -0.406737 0.913545 0
    outer loop
      vertex -21.6312 66.574 0
      vertex -24.2067 65.4273 3
      vertex -24.2067 65.4273 23.5
    endloop
  endfacet
  facet normal -0.406737 0.913545 0
    outer loop
      vertex -24.2067 65.4273 23.5
      vertex -35 60.6218 23.5
      vertex -35 60.6218 30
    endloop
  endfacet
  facet normal -0.406737 0.913545 0
    outer loop
      vertex -24.2067 65.4273 23.5
      vertex -35 60.6218 30
      vertex -21.6312 66.574 30
    endloop
  endfacet
  facet normal -0.406737 0.913545 0
    outer loop
      vertex -24.2067 65.4273 23.5
      vertex -21.6312 66.574 30
      vertex -21.6312 66.574 0
    endloop
  endfacet
  facet normal -0.587785 0.809017 0
    outer loop
      vertex -35 60.6218 3
      vertex -35 60.6218 0
      vertex -44.5583 53.6773 3
    endloop
  endfacet
  facet normal -0.587785 0.809017 0
    outer loop
      vertex -35 60.6218 23.5
      vertex -46.8391 52.0201 30
      vertex -35 60.6218 30
    endloop
  endfacet
  facet normal -0.587785 0.809017 0
    outer loop
      vertex -46.8391 52.0201 0
      vertex -46.8391 52.0201 30
      vertex -44.5583 53.6773 23.5
    endloop
  endfacet
  facet normal -0.587785 0.809017 0
    outer loop
      vertex -46.8391 52.0201 0
      vertex -44.5583 53.6773 23.5
      vertex -44.5583 53.6773 3
    endloop
  endfacet
  facet normal -0.587785 0.809017 0
    outer loop
      vertex -46.8391 52.0201 0
      vertex -44.5583 53.6773 3
      vertex -35 60.6218 0
    endloop
  endfacet
  facet normal -0.587785 0.809017 0
    outer loop
      vertex -44.5583 53.6773 23.5
      vertex -46.8391 52.0201 30
      vertex -35 60.6218 23.5
    endloop
  endfacet
  facet normal -0.743145 0.669131 0
    outer loop
      vertex -56.6312 41.145 0
      vertex -56.6312 41.145 30
      vertex -46.8391 52.0201 0
    endloop
  endfacet
  facet normal -0.743145 0.669131 0
    outer loop
      vertex -46.8391 52.0201 0
      vertex -56.6312 41.145 30
      vertex -46.8391 52.0201 30
    endloop
  endfacet
  facet normal -0.866025 0.5 0
    outer loop
      vertex -63.9482 28.4716 0
      vertex -63.9482 28.4716 3
      vertex -56.6312 41.145 0
    endloop
  endfacet
  facet normal -0.866025 0.5 0
    outer loop
      vertex -56.6312 41.145 0
      vertex -63.9482 28.4716 3
      vertex -60.4617 34.5103 3
    endloop
  endfacet
  facet normal -0.866025 0.5 0
    outer loop
      vertex -56.6312 41.145 0
      vertex -60.4617 34.5103 3
      vertex -60.4617 34.5103 23.5
    endloop
  endfacet
  facet normal -0.866025 0.5 0
    outer loop
      vertex -60.4617 34.5103 23.5
      vertex -63.9482 28.4716 23.5
      vertex -63.9482 28.4716 30
    endloop
  endfacet
  facet normal -0.866025 0.5 0
    outer loop
      vertex -60.4617 34.5103 23.5
      vertex -63.9482 28.4716 30
      vertex -56.6312 41.145 30
    endloop
  endfacet
  facet normal -0.866025 0.5 0
    outer loop
      vertex -60.4617 34.5103 23.5
      vertex -56.6312 41.145 30
      vertex -56.6312 41.145 0
    endloop
  endfacet
  facet normal -0.951057 0.309017 0
    outer loop
      vertex -68.4703 14.5538 0
      vertex -68.4703 14.5538 3
      vertex -63.9482 28.4716 0
    endloop
  endfacet
  facet normal -0.951057 0.309017 0
    outer loop
      vertex -63.9482 28.4716 0
      vertex -68.4703 14.5538 3
      vertex -63.9482 28.4716 3
    endloop
  endfacet
  facet normal 0 0 1
    outer loop
      vertex -68.4703 -14.5538 3
      vertex -63.9482 -28.4716 3
      vertex -60.4617 -34.5103 3
    endloop
  endfacet
  facet normal 0 0 1
    outer loop
      vertex 0 -23.5 3
      vertex -68.4703 -14.5538 3
      vertex -26.3172 -22.0828 3
    endloop
  endfacet
  facet normal 0 0 1
    outer loop
      vertex -26.3172 -22.0828 3
      vertex -68.4703 -14.5538 3
      vertex -60.4617 -34.5103 3
    endloop
  endfacet
  facet normal 0 0 1
    outer loop
      vertex -35 -60.6218 3
      vertex -26.3172 -22.0828 3
      vertex -44.5583 -53.6773 3
    endloop
  endfacet
  facet normal 0 0 1
    outer loop
      vertex -24.2067 -65.4273 3
      vertex -26.3172 -22.0828 3
      vertex -35 -60.6218 3
    endloop
  endfacet
  facet normal 0 0 1
    outer loop
      vertex 0 -23.5 3
      vertex -26.3172 -22.0828 3
      vertex -24.2067 -65.4273 3
    endloop
  endfacet
  facet normal 0 0 1
    outer loop
      vertex -34.3547 6.21863e-15 3
      vertex -68.4703 -14.5538 3
      vertex 0 -23.5 3
    endloop
  endfacet
  facet normal 0 0 1
    outer loop
      vertex -34.3547 6.21863e-15 3
      vertex -68.6866 -12.4958 3
      vertex -68.4703 -14.5538 3
    endloop
  endfacet
  facet normal 0 0 1
    outer loop
      vertex -68.6866 12.4958 3
      vertex -60.4617 34.5103 3
      vertex -63.9482 28.4716 3
    endloop
  endfacet
  facet normal 0 0 1
    outer loop
      vertex -24.2067 65.4273 3
      vertex -26.3172 22.0828 3
      vertex 0 23.5 3
    endloop
  endfacet
  facet normal 0 0 1
    outer loop
      vertex 0 23.5 3
      vertex -34.3547 6.21863e-15 3
      vertex 0 -23.5 3
    endloop
  endfacet
  facet normal 0 0 1
    outer loop
      vertex -68.6866 12.4958 3
      vertex -63.9482 28.4716 3
      vertex -68.4703 14.5538 3
    endloop
  endfacet
  facet normal 0 0 1
    outer loop
      vertex -44.5583 53.6773 3
      vertex -24.2067 65.4273 3
      vertex -35 60.6218 3
    endloop
  endfacet
  facet normal 0 0 1
    outer loop
      vertex -44.5583 53.6773 3
      vertex -26.3172 22.0828 3
      vertex -24.2067 65.4273 3
    endloop
  endfacet
  facet normal 0 0 1
    outer loop
      vertex -68.6866 12.4958 3
      vertex -26.3172 22.0828 3
      vertex -60.4617 34.5103 3
    endloop
  endfacet
  facet normal 0 0 1
    outer loop
      vertex -68.6866 12.4958 3
      vertex 0 23.5 3
      vertex -26.3172 22.0828 3
    endloop
  endfacet
  facet normal 0 0 1
    outer loop
      vertex -68.6866 12.4958 3
      vertex -34.3547 6.21863e-15 3
      vertex 0 23.5 3
    endloop
  endfacet
  facet normal 0.34202 0.939693 0
    outer loop
      vertex -34.3547 6.21863e-15 23.5
      vertex -34.3547 6.21863e-15 3
      vertex -68.6866 12.4958 23.5
    endloop
  endfacet
  facet normal 0.34202 0.939693 0
    outer loop
      vertex -68.6866 12.4958 23.5
      vertex -34.3547 6.21863e-15 3
      vertex -68.6866 12.4958 3
    endloop
  endfacet
  facet normal 0 0 -1
    outer loop
      vertex -68.6866 12.4958 23.5
      vertex -68.4703 14.5538 23.5
      vertex -34.3547 6.21863e-15 23.5
    endloop
  endfacet
  facet normal 0 0 -1
    outer loop
      vertex -34.3547 6.21863e-15 23.5
      vertex -68.4703 14.5538 23.5
      vertex -63.9482 28.4716 23.5
    endloop
  endfacet
  facet normal 0 0 -1
    outer loop
      vertex -34.3547 6.21863e-15 23.5
      vertex -63.9482 28.4716 23.5
      vertex -60.4617 34.5103 23.5
    endloop
  endfacet
  facet normal 0 0 -1
    outer loop
      vertex -34.3547 6.21863e-15 23.5
      vertex -60.4617 34.5103 23.5
      vertex -26.3172 22.0828 23.5
    endloop
  endfacet
  facet normal 0 0 -1
    outer loop
      vertex -26.3172 22.0828 23.5
      vertex -44.5583 53.6773 23.5
      vertex -35 60.6218 23.5
    endloop
  endfacet
  facet normal 0 0 -1
    outer loop
      vertex -26.3172 22.0828 23.5
      vertex -35 60.6218 23.5
      vertex -24.2067 65.4273 23.5
    endloop
  endfacet
  facet normal 0 0 -1
    outer loop
      vertex -26.3172 22.0828 23.5
      vertex -24.2067 65.4273 23.5
      vertex 0 23.5 23.5
    endloop
  endfacet
  facet normal 0 0 -1
    outer loop
      vertex -26.3172 22.0828 23.5
      vertex 0 23.5 23.5
      vertex -34.3547 6.21863e-15 23.5
    endloop
  endfacet
  facet normal 0 0 -1
    outer loop
      vertex -34.3547 6.21863e-15 23.5
      vertex 0 23.5 23.5
      vertex 0 -23.5 23.5
    endloop
  endfacet
  facet normal 0 0 -1
    outer loop
      vertex -26.3172 -22.0828 23.5
      vertex -24.2067 -65.4273 23.5
      vertex -35 -60.6218 23.5
    endloop
  endfacet
  facet normal 0 0 -1
    outer loop
      vertex 0 -23.5 23.5
      vertex -24.2067 -65.4273 23.5
      vertex -26.3172 -22.0828 23.5
    endloop
  endfacet
  facet normal 0 0 -1
    outer loop
      vertex -26.3172 -22.0828 23.5
      vertex -35 -60.6218 23.5
      vertex -44.5583 -53.6773 23.5
    endloop
  endfacet
  facet normal 0 0 -1
    outer loop
      vertex -34.3547 6.21863e-15 23.5
      vertex 0 -23.5 23.5
      vertex -26.3172 -22.0828 23.5
    endloop
  endfacet
  facet normal 0 0 -1
    outer loop
      vertex -60.4617 -34.5103 23.5
      vertex -34.3547 6.21863e-15 23.5
      vertex -26.3172 -22.0828 23.5
    endloop
  endfacet
  facet normal 0 0 -1
    outer loop
      vertex -34.3547 6.21863e-15 23.5
      vertex -60.4617 -34.5103 23.5
      vertex -63.9482 -28.4716 23.5
    endloop
  endfacet
  facet normal 0 0 -1
    outer loop
      vertex -34.3547 6.21863e-15 23.5
      vertex -63.9482 -28.4716 23.5
      vertex -68.4703 -14.5538 23.5
    endloop
  endfacet
  facet normal 0 0 -1
    outer loop
      vertex -34.3547 6.21863e-15 23.5
      vertex -68.4703 -14.5538 23.5
      vertex -68.6866 -12.4958 23.5
    endloop
  endfacet
  facet normal -0.951057 0.309017 0
    outer loop
      vertex -68.4703 14.5538 23.5
      vertex -68.4703 14.5538 30
      vertex -63.9482 28.4716 23.5
    endloop
  endfacet
  facet normal -0.951057 0.309017 0
    outer loop
      vertex -63.9482 28.4716 23.5
      vertex -68.4703 14.5538 30
      vertex -63.9482 28.4716 30
    endloop
  endfacet
  facet normal 0 0 1
    outer loop
      vertex -68.4703 14.5538 30
      vertex -70 0 30
      vertex -68.4703 -14.5538 30
    endloop
  endfacet
  facet normal 0 0 1
    outer loop
      vertex -56.6312 -41.145 30
      vertex -68.4703 14.5538 30
      vertex -63.9482 -28.4716 30
    endloop
  endfacet
  facet normal 0 0 1
    outer loop
      vertex -63.9482 -28.4716 30
      vertex -68.4703 14.5538 30
      vertex -68.4703 -14.5538 30
    endloop
  endfacet
  facet normal 0 0 1
    outer loop
      vertex -46.8391 -52.0201 30
      vertex -68.4703 14.5538 30
      vertex -56.6312 -41.145 30
    endloop
  endfacet
  facet normal 0 0 1
    outer loop
      vertex -35 -60.6218 30
      vertex -68.4703 14.5538 30
      vertex -46.8391 -52.0201 30
    endloop
  endfacet
  facet normal 0 0 1
    outer loop
      vertex -21.6312 -66.574 30
      vertex -68.4703 14.5538 30
      vertex -35 -60.6218 30
    endloop
  endfacet
  facet normal 0 0 1
    outer loop
      vertex -7.31699 -69.6165 30
      vertex -68.4703 14.5538 30
      vertex -21.6312 -66.574 30
    endloop
  endfacet
  facet normal 0 0 1
    outer loop
      vertex 0 -69.6165 30
      vertex -68.4703 14.5538 30
      vertex -7.31699 -69.6165 30
    endloop
  endfacet
  facet normal 0 0 1
    outer loop
      vertex 0 69.6165 30
      vertex -68.4703 14.5538 30
      vertex 0 -69.6165 30
    endloop
  endfacet
  facet normal 0 0 1
    outer loop
      vertex -7.31699 69.6165 30
      vertex -68.4703 14.5538 30
      vertex 0 69.6165 30
    endloop
  endfacet
  facet normal 0 0 1
    outer loop
      vertex -21.6312 66.574 30
      vertex -68.4703 14.5538 30
      vertex -7.31699 69.6165 30
    endloop
  endfacet
  facet normal 0 0 1
    outer loop
      vertex -35 60.6218 30
      vertex -68.4703 14.5538 30
      vertex -21.6312 66.574 30
    endloop
  endfacet
  facet normal 0 0 1
    outer loop
      vertex -46.8391 52.0201 30
      vertex -68.4703 14.5538 30
      vertex -35 60.6218 30
    endloop
  endfacet
  facet normal 0 0 1
    outer loop
      vertex -56.6312 41.145 30
      vertex -68.4703 14.5538 30
      vertex -46.8391 52.0201 30
    endloop
  endfacet
  facet normal 0 0 1
    outer loop
      vertex -63.9482 28.4716 30
      vertex -68.4703 14.5538 30
      vertex -56.6312 41.145 30
    endloop
  endfacet
  facet normal -0.951057 -0.309017 0
    outer loop
      vertex -68.4703 -14.5538 23.5
      vertex -63.9482 -28.4716 23.5
      vertex -68.4703 -14.5538 30
    endloop
  endfacet
  facet normal -0.951057 -0.309017 0
    outer loop
      vertex -68.4703 -14.5538 30
      vertex -63.9482 -28.4716 23.5
      vertex -63.9482 -28.4716 30
    endloop
  endfacet
  facet normal 0.34202 -0.939693 0
    outer loop
      vertex -34.3547 6.21863e-15 3
      vertex -34.3547 6.21863e-15 23.5
      vertex -68.6866 -12.4958 23.5
    endloop
  endfacet
  facet normal 0.34202 -0.939693 0
    outer loop
      vertex -68.6866 -12.4958 3
      vertex -34.3547 6.21863e-15 3
      vertex -68.6866 -12.4958 23.5
    endloop
  endfacet
  facet normal -0.34202 0.939693 0
    outer loop
      vertex -26.3172 -22.0828 23.5
      vertex -26.3172 -22.0828 3
      vertex -60.4617 -34.5103 23.5
    endloop
  endfacet
  facet normal -0.34202 0.939693 0
    outer loop
      vertex -60.4617 -34.5103 23.5
      vertex -26.3172 -22.0828 3
      vertex -60.4617 -34.5103 3
    endloop
  endfacet
  facet normal 0.866025 -0.5 0
    outer loop
      vertex -26.3172 -22.0828 3
      vertex -26.3172 -22.0828 23.5
      vertex -44.5583 -53.6773 23.5
    endloop
  endfacet
  facet normal 0.866025 -0.5 0
    outer loop
      vertex -44.5583 -53.6773 3
      vertex -26.3172 -22.0828 3
      vertex -44.5583 -53.6773 23.5
    endloop
  endfacet
  facet normal -0.866025 0.5 0
    outer loop
      vertex 0 -23.5 23.5
      vertex 0 -23.5 3
      vertex -24.2067 -65.4273 23.5
    endloop
  endfacet
  facet normal -0.866025 0.5 0
    outer loop
      vertex -24.2067 -65.4273 23.5
      vertex 0 -23.5 3
      vertex -24.2067 -65.4273 3
    endloop
  endfacet
  facet normal -0.866025 -0.5 0
    outer loop
      vertex 0 23.5 23.5
      vertex -24.2067 65.4273 23.5
      vertex 0 23.5 3
    endloop
  endfacet
  facet normal -0.866025 -0.5 0
    outer loop
      vertex 0 23.5 3
      vertex -24.2067 65.4273 23.5
      vertex -24.2067 65.4273 3
    endloop
  endfacet
  facet normal 0.866025 0.5 0
    outer loop
      vertex -44.5583 53.6773 23.5
      vertex -26.3172 22.0828 23.5
      vertex -26.3172 22.0828 3
    endloop
  endfacet
  facet normal 0.866025 0.5 0
    outer loop
      vertex -44.5583 53.6773 3
      vertex -44.5583 53.6773 23.5
      vertex -26.3172 22.0828 3
    endloop
  endfacet
  facet normal -0.34202 -0.939693 0
    outer loop
      vertex -26.3172 22.0828 3
      vertex -26.3172 22.0828 23.5
      vertex -60.4617 34.5103 23.5
    endloop
  endfacet
  facet normal -0.34202 -0.939693 0
    outer loop
      vertex -60.4617 34.5103 3
      vertex -26.3172 22.0828 3
      vertex -60.4617 34.5103 23.5
    endloop
  endfacet
endsolid OpenSCAD_Model
